<svg id="Layer_1" data-name="Layer 1" xmlns="http://www.w3.org/2000/svg" viewBox="0 0 284.84 260.61"><defs><style>.cls-1,.cls-2{fill:#0e2647;}.cls-2{font-size:202.28px;font-family:Pristina-Regular, Pristina;}</style></defs><path class="cls-1" d="M87.82,74.75H26.89a2.3,2.3,0,0,1-2.21-1.2,2.48,2.48,0,0,1-.21-2.62L29.7,57.66,24.47,8.19H7.58V2.56H26.89A2.81,2.81,0,0,1,29.7,5l5.63,52.49a4,4,0,0,1-.2,1.41l-4,10.05H87.82v5.83" transform="translate(-7.58 80.3)"/><path class="cls-1" d="M33.12,60.88l-1.2-5.43L96.07,42.17V19.45H29.7V13.82H98.88a2.75,2.75,0,0,1,2.82,2.81V44.39A2.62,2.62,0,0,1,99.49,47L33.12,60.88M90.64,91.44A11.06,11.06,0,1,1,101.7,80.38,11.16,11.16,0,0,1,90.64,91.44Zm0-16.69A5.62,5.62,0,0,0,85,80.38a5.63,5.63,0,0,0,11.26,0A5.62,5.62,0,0,0,90.64,74.75ZM24.27,91.44A11.06,11.06,0,1,1,35.33,80.38,11.16,11.16,0,0,1,24.27,91.44Zm0-16.69a5.63,5.63,0,0,0-5.63,5.63A5.5,5.5,0,0,0,24.27,86a5.49,5.49,0,0,0,5.63-5.63A5.62,5.62,0,0,0,24.27,74.75Z" transform="translate(-7.58 80.3)"/><text class="cls-2" transform="translate(94.12 170.23) scale(0.73 1)">now</text></svg>