<svg width="1538" height="517" viewBox="0 0 1538 517" fill="none" xmlns="http://www.w3.org/2000/svg">
<path d="M743 45.9998L743 25.9998L745.054 25.9998L747.064 26.4171L743 45.9998ZM358 45.9998L358 65.9998C357.877 65.9998 357.753 65.9987 357.63 65.9964L358 45.9998ZM789.5 73.9998C789.5 85.0455 780.546 93.9998 769.5 93.9998C758.454 93.9998 749.5 85.0455 749.5 73.9998L789.5 73.9998ZM351 73.9998C351 85.0455 342.046 93.9998 331 93.9998C319.954 93.9998 311 85.0455 311 73.9998L351 73.9998ZM771 343C782.046 343 791 351.954 791 363C791 374.046 782.046 383 771 383V343ZM332.314 363V383C323.773 383 316.175 377.576 313.399 369.499L332.314 363ZM223.392 46V26C231.933 26 239.531 31.4235 242.306 39.5009L223.392 46ZM72 66C60.9543 66 52 57.0457 52 46C52 34.9543 60.9543 26 72 26V66ZM743 65.9998L358 65.9998L358 25.9998L743 25.9998L743 65.9998ZM747.064 26.4171C753.142 27.6784 763.066 30.6994 771.911 37.6423C781.456 45.1342 789.5 57.1522 789.5 73.9998L749.5 73.9998C749.5 72.2736 749.141 71.4221 748.918 70.9995C748.652 70.4966 748.167 69.8555 747.214 69.1074C745.018 67.3836 741.692 66.1545 738.936 65.5825L747.064 26.4171ZM357.63 65.9964C357.349 65.9912 356.497 66.0406 355.432 66.3421C354.403 66.6333 353.593 67.0405 353.037 67.4528C352.559 67.8074 352.196 68.2083 351.89 68.829C351.579 69.4608 351 70.9856 351 73.9998L311 73.9998C311 56.513 318.305 43.4098 329.213 35.3218C339.114 27.9799 350.457 25.8567 358.37 26.0032L357.63 65.9964ZM771 383H332.314V343H771V383ZM313.399 369.499L204.477 52.4991L242.306 39.5009L351.228 356.501L313.399 369.499ZM223.392 66H72V26H223.392V66Z" fill="#154360"/>
<circle cx="36" cy="36" r="36" transform="matrix(-1 0 0 1 648 419)" fill="#154360"/>
<circle cx="36" cy="36" r="36" transform="matrix(-1 0 0 1 500 419)" fill="#154360"/>
<path d="M403.999 256.812H384.229C380.286 256.812 377.101 253.595 377.14 249.653L377.213 242.224C377.252 238.336 380.414 235.204 384.302 235.204H403.999C412.301 235.204 418.936 233.679 423.903 230.628C428.87 227.505 432.454 222.751 434.653 216.365C436.853 209.978 437.953 201.818 437.953 191.884V166.657C437.953 158.994 437.314 152.466 436.037 147.073C434.831 141.609 432.915 137.174 430.289 133.768C427.735 130.291 424.364 127.736 420.178 126.104C415.991 124.401 410.953 123.549 405.063 123.549H383.627C379.711 123.549 376.538 120.376 376.538 116.46V108.925C376.538 105.01 379.711 101.836 383.627 101.836H405.063C413.933 101.836 421.952 103.255 429.119 106.093C436.286 108.932 442.424 113.118 447.533 118.653C452.713 124.117 456.686 130.894 459.454 138.983C462.221 147.073 463.605 156.368 463.605 166.87V191.884C463.605 202.386 462.221 211.681 459.454 219.771C456.686 227.789 452.713 234.566 447.533 240.101C442.353 245.565 436.108 249.716 428.799 252.554C421.49 255.392 413.224 256.812 403.999 256.812ZM384.776 101.836C388.691 101.836 391.865 105.01 391.865 108.925V249.723C391.865 253.638 388.691 256.812 384.776 256.812H373.089C369.174 256.812 366 253.638 366 249.723V108.925C366 105.01 369.174 101.836 373.089 101.836H384.776Z" fill="#154360"/>
<path d="M504.286 101.836C508.201 101.836 511.375 105.01 511.375 108.925V249.723C511.375 253.638 508.201 256.812 504.286 256.812H492.599C488.684 256.812 485.51 253.638 485.51 249.723V108.925C485.51 105.01 488.684 101.836 492.599 101.836H504.286Z" fill="#154360"/>
<path d="M630.183 177.301C634.098 177.301 637.272 180.475 637.272 184.39V235.867C637.272 237.504 636.719 239.102 635.598 240.294C633.795 242.21 631.443 244.381 628.544 246.806C624.712 250 619.532 252.838 613.003 255.321C606.546 257.734 598.386 258.94 588.522 258.94C580.22 258.94 572.627 257.592 565.744 254.896C558.932 252.199 553.078 248.119 548.182 242.655C543.286 237.191 539.525 230.379 536.899 222.219C534.274 213.988 532.961 204.266 532.961 193.054V165.487C532.961 154.417 534.132 144.766 536.473 136.535C538.886 128.304 542.399 121.456 547.011 115.992C551.623 110.457 557.229 106.377 563.828 103.752C570.428 101.055 578.02 99.707 586.606 99.707C597.463 99.707 606.511 101.623 613.748 105.455C621.057 109.216 626.628 114.821 630.459 122.272C633.412 127.854 635.43 134.371 636.514 141.82C637.102 145.86 633.827 149.308 629.744 149.308H618.545C614.868 149.308 611.861 146.482 611.194 142.866C610.518 139.206 609.561 136.067 608.32 133.448C606.475 129.333 603.814 126.281 600.337 124.295C596.86 122.308 592.39 121.314 586.926 121.314C581.959 121.314 577.701 122.166 574.153 123.869C570.605 125.572 567.696 128.233 565.425 131.852C563.154 135.4 561.487 139.941 560.422 145.476C559.358 151.011 558.826 157.61 558.826 165.274V193.054C558.826 200.86 559.5 207.566 560.848 213.171C562.196 218.777 564.148 223.39 566.702 227.009C569.328 230.557 572.556 233.182 576.388 234.885C580.22 236.517 584.584 237.333 589.48 237.333C594.306 237.333 598.137 236.837 600.976 235.843C603.814 234.85 606.014 233.75 607.575 232.543C607.93 232.266 608.269 232.002 608.594 231.751C610.406 230.351 611.513 228.204 611.513 225.915V204.72C611.513 200.805 608.339 197.631 604.424 197.631H593.589C589.674 197.631 586.5 194.457 586.5 190.542V184.39C586.5 180.475 589.674 177.301 593.589 177.301H630.183Z" fill="#154360"/>
<path d="M678.378 101.836C682.293 101.836 685.467 105.01 685.467 108.925V249.723C685.467 253.638 682.293 256.812 678.378 256.812H666.692C662.776 256.812 659.603 253.638 659.603 249.723V108.925C659.603 105.01 662.776 101.836 666.692 101.836H678.378Z" fill="#154360"/>
<path d="M755.951 101.836C759.867 101.836 763.04 105.01 763.04 108.925V249.723C763.04 253.638 759.867 256.812 755.951 256.812H744.371C740.456 256.812 737.282 253.638 737.282 249.723V108.925C737.282 105.01 740.456 101.836 744.371 101.836H755.951ZM795.44 101.836C799.356 101.836 802.529 105.01 802.529 108.925V116.46C802.529 120.376 799.356 123.549 795.44 123.549H705.308C701.393 123.549 698.219 120.376 698.219 116.46V108.925C698.219 105.01 701.393 101.836 705.308 101.836H795.44Z" fill="#154360"/>
<path d="M860.142 122.402C860.109 122.882 860.026 123.357 859.897 123.82L824.076 251.636C823.218 254.696 820.428 256.812 817.25 256.812H805.276C800.481 256.812 797.069 252.149 798.519 247.579L843.196 106.781C844.13 103.836 846.863 101.836 849.953 101.836H853.979C858.089 101.836 861.338 105.32 861.051 109.42L860.142 122.402ZM895.373 256.812C892.196 256.812 889.408 254.699 888.548 251.641L852.61 123.771C852.489 123.341 852.409 122.899 852.371 122.454L851.272 109.525C850.921 105.388 854.184 101.836 858.336 101.836H862.574C865.66 101.836 868.392 103.832 869.329 106.772L914.198 247.57C915.656 252.143 912.243 256.812 907.444 256.812H895.373ZM883.551 199.228C887.466 199.228 890.64 202.402 890.64 206.317V213.853C890.64 217.768 887.466 220.942 883.551 220.942H825.563C821.648 220.942 818.474 217.768 818.474 213.853V206.317C818.474 202.402 821.648 199.228 825.563 199.228H883.551Z" fill="#154360"/>
<path d="M1005.72 235.204C1009.64 235.204 1012.81 238.378 1012.81 242.293V249.723C1012.81 253.638 1009.64 256.812 1005.72 256.812H955.504C951.589 256.812 948.415 253.638 948.415 249.723V242.293C948.415 238.378 951.589 235.204 955.504 235.204H1005.72ZM948.138 101.836C952.054 101.836 955.227 105.01 955.227 108.925V249.723C955.227 253.638 952.054 256.812 948.138 256.812H936.452C932.537 256.812 929.363 253.638 929.363 249.723V108.925C929.363 105.01 932.537 101.836 936.452 101.836H948.138Z" fill="#154360"/>
<path d="M1139.43 216.79C1139.43 213.597 1139.08 210.759 1138.37 208.275C1137.73 205.721 1136.49 203.415 1134.64 201.357C1132.8 199.299 1130.17 197.277 1126.77 195.29C1123.43 193.303 1119.1 191.28 1113.78 189.223C1107.68 186.881 1101.96 184.326 1096.64 181.559C1091.39 178.721 1086.74 175.527 1082.7 171.979C1078.73 168.36 1075.6 164.138 1073.33 159.313C1071.06 154.488 1069.93 148.882 1069.93 142.496C1069.93 136.18 1071.03 130.433 1073.23 125.252C1075.5 120.001 1078.69 115.496 1082.81 111.735C1086.99 107.903 1091.96 104.958 1097.71 102.9C1103.46 100.771 1109.81 99.707 1116.76 99.707C1126.77 99.707 1135.32 101.836 1142.41 106.093C1149.58 110.351 1155.04 116.063 1158.8 123.23C1161.57 128.413 1163.34 134.003 1164.11 140.002C1164.61 143.885 1161.38 147.073 1157.46 147.073H1145.88C1141.97 147.073 1138.89 143.873 1138.22 140.015C1137.83 137.752 1137.24 135.634 1136.45 133.661C1134.89 129.758 1132.48 126.707 1129.21 124.507C1125.95 122.308 1121.73 121.208 1116.55 121.208C1111.79 121.208 1107.85 122.13 1104.73 123.975C1101.68 125.82 1099.41 128.339 1097.92 131.532C1096.5 134.726 1095.79 138.38 1095.79 142.496C1095.79 145.334 1096.39 147.924 1097.6 150.266C1098.81 152.536 1100.55 154.63 1102.82 156.546C1105.09 158.462 1107.85 160.271 1111.12 161.974C1114.38 163.677 1118.14 165.309 1122.4 166.87C1129.64 169.496 1135.95 172.405 1141.35 175.598C1146.74 178.792 1151.18 182.375 1154.65 186.349C1158.2 190.252 1160.83 194.686 1162.53 199.654C1164.3 204.621 1165.19 210.262 1165.19 216.578C1165.19 222.964 1164.09 228.783 1161.89 234.034C1159.76 239.214 1156.64 243.649 1152.52 247.339C1148.41 251.028 1143.44 253.902 1137.62 255.96C1131.8 257.947 1125.28 258.94 1118.04 258.94C1111.37 258.94 1104.95 257.947 1098.77 255.96C1092.67 253.973 1087.21 250.957 1082.38 246.913C1077.55 242.797 1073.72 237.653 1070.88 231.479C1068.93 227.129 1067.67 222.25 1067.1 216.843C1066.68 212.949 1069.91 209.765 1073.82 209.765H1085.51C1089.42 209.765 1092.51 212.959 1093.07 216.833C1093.37 218.904 1093.82 220.806 1094.41 222.538C1095.61 226.015 1097.35 228.889 1099.62 231.16C1101.96 233.359 1104.7 234.992 1107.82 236.056C1111.01 237.049 1114.56 237.546 1118.46 237.546C1123.29 237.546 1127.23 236.695 1130.28 234.992C1133.4 233.218 1135.71 230.769 1137.2 227.647C1138.69 224.525 1139.43 220.906 1139.43 216.79Z" fill="#154360"/>
<path d="M1260.9 166.338C1264.82 166.338 1267.99 169.512 1267.99 173.427V180.963C1267.99 184.878 1264.82 188.052 1260.9 188.052H1209.83C1205.92 188.052 1202.74 184.878 1202.74 180.963V173.427C1202.74 169.512 1205.92 166.338 1209.83 166.338H1260.9ZM1201.72 101.836C1205.63 101.836 1208.81 105.01 1208.81 108.925V249.723C1208.81 253.638 1205.63 256.812 1201.72 256.812H1190.03C1186.12 256.812 1182.94 253.638 1182.94 249.723V108.925C1182.94 105.01 1186.12 101.836 1190.03 101.836H1201.72ZM1281.12 101.836C1285.04 101.836 1288.21 105.01 1288.21 108.925V249.723C1288.21 253.638 1285.04 256.812 1281.12 256.812H1269.54C1265.63 256.812 1262.45 253.638 1262.45 249.723V108.925C1262.45 105.01 1265.63 101.836 1269.54 101.836H1281.12Z" fill="#154360"/>
<path d="M1417.2 166.657V193.054C1417.2 203.982 1415.92 213.562 1413.36 221.793C1410.88 230.024 1407.26 236.907 1402.51 242.442C1397.82 247.906 1392.15 252.022 1385.48 254.789C1378.88 257.557 1371.5 258.94 1363.34 258.94C1355.25 258.94 1347.87 257.557 1341.2 254.789C1334.6 252.022 1328.89 247.906 1324.06 242.442C1319.31 236.907 1315.62 230.024 1312.99 221.793C1310.44 213.562 1309.16 203.982 1309.16 193.054V166.657C1309.16 155.588 1310.44 145.902 1312.99 137.599C1315.55 129.226 1319.2 122.237 1323.95 116.631C1328.78 111.025 1334.49 106.803 1341.09 103.965C1347.76 101.126 1355.11 99.707 1363.12 99.707C1371.29 99.707 1378.66 101.126 1385.26 103.965C1391.93 106.803 1397.65 111.025 1402.4 116.631C1407.16 122.237 1410.81 129.226 1413.36 137.599C1415.92 145.902 1417.2 155.588 1417.2 166.657ZM1391.54 193.054V166.445C1391.54 158.568 1390.91 151.827 1389.63 146.221C1388.42 140.544 1386.61 135.932 1384.2 132.384C1381.79 128.765 1378.81 126.104 1375.26 124.401C1371.78 122.627 1367.74 121.74 1363.12 121.74C1358.65 121.74 1354.65 122.627 1351.1 124.401C1347.62 126.104 1344.64 128.765 1342.16 132.384C1339.74 135.932 1337.9 140.544 1336.62 146.221C1335.41 151.827 1334.81 158.568 1334.81 166.445V193.054C1334.81 200.789 1335.45 207.459 1336.73 213.065C1338 218.6 1339.85 223.141 1342.26 226.689C1344.75 230.166 1347.76 232.756 1351.31 234.459C1354.86 236.162 1358.87 237.014 1363.34 237.014C1367.88 237.014 1371.92 236.162 1375.47 234.459C1379.02 232.756 1381.96 230.166 1384.31 226.689C1386.72 223.141 1388.53 218.6 1389.73 213.065C1390.94 207.459 1391.54 200.789 1391.54 193.054Z" fill="#154360"/>
<path d="M1489.13 199.334H1463.54C1459.62 199.334 1456.45 196.16 1456.45 192.245V184.816C1456.45 180.901 1459.62 177.727 1463.54 177.727H1489.13C1494.45 177.727 1498.74 176.592 1502.01 174.321C1505.34 172.05 1507.75 168.928 1509.24 164.954C1510.81 160.981 1511.59 156.475 1511.59 151.437C1511.59 146.611 1510.81 142.07 1509.24 137.812C1507.75 133.555 1505.38 130.113 1502.11 127.488C1498.85 124.862 1494.52 123.549 1489.13 123.549H1470.78C1466.86 123.549 1463.69 126.723 1463.69 130.639V249.723C1463.69 253.638 1460.51 256.812 1456.6 256.812H1445.02C1441.1 256.812 1437.93 253.638 1437.93 249.723V108.925C1437.93 105.01 1441.1 101.836 1445.02 101.836H1489.13C1499.35 101.836 1508.07 103.965 1515.31 108.222C1522.55 112.48 1528.08 118.334 1531.92 125.785C1535.75 133.164 1537.66 141.644 1537.66 151.224C1537.66 161.229 1535.75 169.815 1531.92 176.982C1528.08 184.149 1522.55 189.684 1515.31 193.587C1508.07 197.418 1499.35 199.334 1489.13 199.334Z" fill="#154360"/>
<path d="M388.953 281.031H391.848V307.082C391.848 309.858 391.348 312.084 390.35 313.76C389.368 315.419 388.039 316.629 386.363 317.391C384.704 318.152 382.868 318.533 380.854 318.533C378.788 318.533 376.926 318.161 375.268 317.416C373.609 316.654 372.297 315.436 371.332 313.76C370.367 312.084 369.885 309.858 369.885 307.082V281.031H372.779V307.082C372.779 309.232 373.126 310.95 373.82 312.236C374.514 313.506 375.471 314.42 376.689 314.979C377.908 315.537 379.296 315.816 380.854 315.816C382.445 315.816 383.841 315.537 385.043 314.979C386.262 314.403 387.218 313.48 387.912 312.211C388.606 310.941 388.953 309.232 388.953 307.082V281.031ZM422.338 315.283V318H406.342V315.283H422.338ZM407.154 281.031V318H404.209V281.031H407.154ZM436.146 281.031V318H433.252V281.031H436.146ZM446.658 281.031V283.748H422.765V281.031H446.658ZM460.263 281.031V318H457.318V281.031H460.263ZM474.554 281.031H477.474L488.671 313.531L499.919 281.031H502.814L489.814 318H487.579L474.554 281.031ZM473.665 281.031H476.23L476.585 301.902V318H473.665V281.031ZM501.189 281.031H503.753V318H500.859V301.902L501.189 281.031ZM527.616 283.266L516.952 318H513.956L525.712 281.031H527.769L527.616 283.266ZM537.163 318L526.499 283.266L526.372 281.031H528.404L540.185 318H537.163ZM535.513 304.924V307.666H518.831V304.924H535.513ZM557.192 281.031V318H554.298V281.031H557.192ZM567.704 281.031V283.748H543.812V281.031H567.704ZM597.229 315.283V318H579.964V315.283H597.229ZM580.776 281.031V318H577.856V281.031H580.776ZM595.071 297.561V300.303H579.964V297.561H595.071ZM597.102 281.031V283.748H579.964V281.031H597.102ZM646.708 295.529V303.527C646.708 305.948 646.428 308.098 645.87 309.977C645.328 311.839 644.532 313.404 643.483 314.674C642.45 315.943 641.198 316.908 639.725 317.568C638.269 318.212 636.619 318.533 634.774 318.533C632.963 318.533 631.321 318.212 629.848 317.568C628.376 316.908 627.114 315.943 626.065 314.674C625.016 313.404 624.203 311.839 623.628 309.977C623.069 308.098 622.79 305.948 622.79 303.527V295.529C622.79 293.092 623.069 290.934 623.628 289.055C624.186 287.176 624.982 285.61 626.014 284.357C627.064 283.105 628.325 282.157 629.797 281.514C631.27 280.854 632.912 280.523 634.723 280.523C636.585 280.523 638.253 280.854 639.725 281.514C641.198 282.157 642.45 283.105 643.483 284.357C644.532 285.61 645.328 287.176 645.87 289.055C646.428 290.934 646.708 293.092 646.708 295.529ZM643.813 303.527V295.479C643.813 293.464 643.61 291.695 643.204 290.172C642.814 288.648 642.239 287.379 641.477 286.363C640.715 285.348 639.767 284.586 638.633 284.078C637.499 283.57 636.196 283.316 634.723 283.316C633.301 283.316 632.023 283.57 630.889 284.078C629.772 284.586 628.824 285.356 628.045 286.389C627.284 287.404 626.7 288.674 626.294 290.197C625.887 291.704 625.684 293.464 625.684 295.479V303.527C625.684 305.559 625.887 307.336 626.294 308.859C626.717 310.366 627.318 311.635 628.096 312.668C628.875 313.684 629.823 314.445 630.94 314.953C632.074 315.461 633.352 315.715 634.774 315.715C636.247 315.715 637.542 315.461 638.659 314.953C639.793 314.445 640.741 313.684 641.503 312.668C642.264 311.635 642.84 310.366 643.229 308.859C643.618 307.336 643.813 305.559 643.813 303.527ZM681.895 281.031V318H678.975L661.582 286.49V318H658.637V281.031H661.582L679 312.541V281.031H681.895ZM713.02 315.283V318H697.024V315.283H713.02ZM697.836 281.031V318H694.891V281.031H697.836ZM726.676 281.031V318H723.731V281.031H726.676ZM763.336 281.031V318H760.416L743.023 286.49V318H740.078V281.031H743.023L760.441 312.541V281.031H763.336ZM795.705 315.283V318H778.439V315.283H795.705ZM779.252 281.031V318H776.332V281.031H779.252ZM793.547 297.561V300.303H778.439V297.561H793.547ZM795.578 281.031V283.748H778.439V281.031H795.578ZM839.648 308.859C839.648 307.861 839.512 306.972 839.242 306.193C838.971 305.398 838.522 304.687 837.896 304.061C837.27 303.434 836.415 302.85 835.331 302.309C834.265 301.75 832.945 301.2 831.371 300.658C829.813 300.133 828.408 299.558 827.156 298.932C825.92 298.305 824.854 297.586 823.956 296.773C823.076 295.961 822.399 295.013 821.925 293.93C821.468 292.846 821.24 291.577 821.24 290.121C821.24 288.682 821.494 287.379 822.001 286.211C822.526 285.026 823.254 284.01 824.185 283.164C825.116 282.318 826.216 281.666 827.486 281.209C828.755 280.752 830.16 280.523 831.701 280.523C833.901 280.523 835.797 281.023 837.388 282.021C838.996 283.003 840.232 284.332 841.095 286.008C841.958 287.667 842.39 289.52 842.39 291.568H839.496C839.496 289.96 839.191 288.53 838.581 287.277C837.989 286.025 837.109 285.043 835.941 284.332C834.79 283.604 833.385 283.24 831.726 283.24C830.067 283.24 828.671 283.553 827.537 284.18C826.419 284.789 825.581 285.61 825.023 286.643C824.464 287.658 824.185 288.784 824.185 290.02C824.185 290.9 824.32 291.712 824.591 292.457C824.862 293.202 825.311 293.887 825.937 294.514C826.58 295.14 827.427 295.732 828.476 296.291C829.525 296.833 830.795 297.34 832.285 297.814C833.96 298.356 835.433 298.957 836.703 299.617C837.989 300.26 839.064 301.022 839.927 301.902C840.807 302.766 841.468 303.764 841.908 304.898C842.365 306.033 842.593 307.336 842.593 308.809C842.593 310.332 842.331 311.695 841.806 312.896C841.281 314.081 840.537 315.097 839.572 315.943C838.607 316.773 837.473 317.408 836.169 317.848C834.866 318.288 833.427 318.508 831.853 318.508C830.482 318.508 829.102 318.296 827.714 317.873C826.343 317.45 825.091 316.79 823.956 315.893C822.839 314.995 821.942 313.844 821.265 312.439C820.588 311.035 820.249 309.359 820.249 307.412H823.169C823.169 308.952 823.423 310.264 823.931 311.348C824.456 312.414 825.133 313.277 825.962 313.938C826.792 314.581 827.723 315.055 828.755 315.359C829.788 315.647 830.829 315.791 831.878 315.791C833.47 315.791 834.841 315.503 835.992 314.928C837.16 314.352 838.057 313.548 838.683 312.516C839.326 311.466 839.648 310.247 839.648 308.859ZM874.099 297.561V300.303H855.64V297.561H874.099ZM856.275 281.031V318H853.355V281.031H856.275ZM876.511 281.031V318H873.591V281.031H876.511ZM912.409 295.529V303.527C912.409 305.948 912.13 308.098 911.571 309.977C911.03 311.839 910.234 313.404 909.185 314.674C908.152 315.943 906.9 316.908 905.427 317.568C903.971 318.212 902.321 318.533 900.476 318.533C898.665 318.533 897.023 318.212 895.55 317.568C894.077 316.908 892.816 315.943 891.767 314.674C890.717 313.404 889.905 311.839 889.329 309.977C888.771 308.098 888.491 305.948 888.491 303.527V295.529C888.491 293.092 888.771 290.934 889.329 289.055C889.888 287.176 890.683 285.61 891.716 284.357C892.765 283.105 894.026 282.157 895.499 281.514C896.972 280.854 898.614 280.523 900.425 280.523C902.287 280.523 903.954 280.854 905.427 281.514C906.9 282.157 908.152 283.105 909.185 284.357C910.234 285.61 911.03 287.176 911.571 289.055C912.13 290.934 912.409 293.092 912.409 295.529ZM909.515 303.527V295.479C909.515 293.464 909.312 291.695 908.905 290.172C908.516 288.648 907.941 287.379 907.179 286.363C906.417 285.348 905.469 284.586 904.335 284.078C903.201 283.57 901.898 283.316 900.425 283.316C899.003 283.316 897.725 283.57 896.591 284.078C895.474 284.586 894.526 285.356 893.747 286.389C892.985 287.404 892.401 288.674 891.995 290.197C891.589 291.704 891.386 293.464 891.386 295.479V303.527C891.386 305.559 891.589 307.336 891.995 308.859C892.418 310.366 893.019 311.635 893.798 312.668C894.577 313.684 895.525 314.445 896.642 314.953C897.776 315.461 899.054 315.715 900.476 315.715C901.948 315.715 903.243 315.461 904.36 314.953C905.495 314.445 906.443 313.684 907.204 312.668C907.966 311.635 908.541 310.366 908.931 308.859C909.32 307.336 909.515 305.559 909.515 303.527ZM935.079 302.969H926.319V300.227H935.079C936.89 300.227 938.354 299.871 939.472 299.16C940.589 298.432 941.401 297.459 941.909 296.24C942.434 295.005 942.696 293.625 942.696 292.102C942.696 290.612 942.434 289.232 941.909 287.963C941.401 286.693 940.589 285.678 939.472 284.916C938.354 284.137 936.89 283.748 935.079 283.748H927.259V318H924.339V281.031H935.079C937.364 281.031 939.285 281.497 940.843 282.428C942.417 283.359 943.602 284.654 944.397 286.312C945.21 287.971 945.616 289.893 945.616 292.076C945.616 294.344 945.21 296.299 944.397 297.941C943.602 299.566 942.417 300.811 940.843 301.674C939.285 302.537 937.364 302.969 935.079 302.969ZM967.27 302.969H958.511V300.227H967.27C969.082 300.227 970.546 299.871 971.663 299.16C972.78 298.432 973.593 297.459 974.1 296.24C974.625 295.005 974.888 293.625 974.888 292.102C974.888 290.612 974.625 289.232 974.1 287.963C973.593 286.693 972.78 285.678 971.663 284.916C970.546 284.137 969.082 283.748 967.27 283.748H959.45V318H956.53V281.031H967.27C969.555 281.031 971.477 281.497 973.034 282.428C974.608 283.359 975.793 284.654 976.589 286.312C977.401 287.971 977.807 289.893 977.807 292.076C977.807 294.344 977.401 296.299 976.589 297.941C975.793 299.566 974.608 300.811 973.034 301.674C971.477 302.537 969.555 302.969 967.27 302.969ZM992.174 281.031V318H989.229V281.031H992.174ZM1028.83 281.031V318H1025.91L1008.52 286.49V318H1005.58V281.031H1008.52L1025.94 312.541V281.031H1028.83ZM1064.33 300.379V313.684C1063.97 314.174 1063.36 314.801 1062.5 315.562C1061.64 316.324 1060.47 317.01 1058.99 317.619C1057.54 318.229 1055.71 318.533 1053.51 318.533C1051.67 318.533 1049.99 318.212 1048.48 317.568C1046.98 316.925 1045.67 315.977 1044.57 314.725C1043.49 313.455 1042.65 311.898 1042.06 310.053C1041.47 308.191 1041.17 306.049 1041.17 303.629V295.123C1041.17 292.719 1041.43 290.612 1041.96 288.801C1042.5 286.99 1043.28 285.475 1044.29 284.256C1045.31 283.02 1046.55 282.089 1048.03 281.463C1049.52 280.837 1051.2 280.523 1053.08 280.523C1055.4 280.523 1057.36 280.955 1058.97 281.818C1060.58 282.665 1061.83 283.9 1062.73 285.525C1063.64 287.15 1064.17 289.122 1064.33 291.441H1061.41C1061.24 289.732 1060.85 288.268 1060.24 287.049C1059.63 285.83 1058.74 284.891 1057.57 284.23C1056.4 283.57 1054.92 283.24 1053.1 283.24C1051.6 283.24 1050.28 283.494 1049.14 284.002C1048.03 284.51 1047.09 285.263 1046.35 286.262C1045.61 287.26 1045.05 288.496 1044.67 289.969C1044.3 291.441 1044.12 293.143 1044.12 295.072V303.629C1044.12 305.626 1044.33 307.378 1044.75 308.885C1045.17 310.391 1045.79 311.661 1046.6 312.693C1047.43 313.726 1048.42 314.505 1049.57 315.029C1050.74 315.554 1052.05 315.816 1053.51 315.816C1055.07 315.816 1056.38 315.622 1057.45 315.232C1058.51 314.826 1059.37 314.378 1060.01 313.887C1060.67 313.396 1061.14 313.007 1061.43 312.719V303.096H1053.31V300.379H1064.33ZM1101.24 318H1094.3L1094.33 315.283H1101.24C1103.45 315.283 1105.34 314.818 1106.9 313.887C1108.46 312.956 1109.64 311.593 1110.45 309.799C1111.28 308.005 1111.7 305.812 1111.7 303.223V295.732C1111.7 293.769 1111.46 292.042 1110.99 290.553C1110.53 289.046 1109.85 287.794 1108.96 286.795C1108.07 285.779 1107 285.018 1105.73 284.51C1104.46 284.002 1103.03 283.748 1101.44 283.748H1094.15V281.031H1101.44C1103.4 281.031 1105.18 281.353 1106.77 281.996C1108.38 282.639 1109.77 283.587 1110.94 284.84C1112.1 286.092 1113 287.641 1113.63 289.486C1114.25 291.314 1114.57 293.413 1114.57 295.783V303.223C1114.57 305.609 1114.25 307.725 1113.63 309.57C1113 311.398 1112.1 312.939 1110.94 314.191C1109.77 315.444 1108.36 316.392 1106.72 317.035C1105.1 317.678 1103.27 318 1101.24 318ZM1095.68 281.031V318H1092.76V281.031H1095.68ZM1145.95 315.283V318H1128.68V315.283H1145.95ZM1129.49 281.031V318H1126.57V281.031H1129.49ZM1143.79 297.561V300.303H1128.68V297.561H1143.79ZM1145.82 281.031V283.748H1128.68V281.031H1145.82ZM1174 308.859C1174 307.861 1173.86 306.972 1173.59 306.193C1173.32 305.398 1172.87 304.687 1172.25 304.061C1171.62 303.434 1170.76 302.85 1169.68 302.309C1168.61 301.75 1167.29 301.2 1165.72 300.658C1164.16 300.133 1162.76 299.558 1161.51 298.932C1160.27 298.305 1159.2 297.586 1158.31 296.773C1157.43 295.961 1156.75 295.013 1156.28 293.93C1155.82 292.846 1155.59 291.577 1155.59 290.121C1155.59 288.682 1155.84 287.379 1156.35 286.211C1156.88 285.026 1157.6 284.01 1158.53 283.164C1159.47 282.318 1160.57 281.666 1161.84 281.209C1163.11 280.752 1164.51 280.523 1166.05 280.523C1168.25 280.523 1170.15 281.023 1171.74 282.021C1173.35 283.003 1174.58 284.332 1175.45 286.008C1176.31 287.667 1176.74 289.52 1176.74 291.568H1173.85C1173.85 289.96 1173.54 288.53 1172.93 287.277C1172.34 286.025 1171.46 285.043 1170.29 284.332C1169.14 283.604 1167.73 283.24 1166.08 283.24C1164.42 283.24 1163.02 283.553 1161.89 284.18C1160.77 284.789 1159.93 285.61 1159.37 286.643C1158.81 287.658 1158.53 288.784 1158.53 290.02C1158.53 290.9 1158.67 291.712 1158.94 292.457C1159.21 293.202 1159.66 293.887 1160.29 294.514C1160.93 295.14 1161.78 295.732 1162.83 296.291C1163.88 296.833 1165.14 297.34 1166.63 297.814C1168.31 298.356 1169.78 298.957 1171.05 299.617C1172.34 300.26 1173.41 301.022 1174.28 301.902C1175.16 302.766 1175.82 303.764 1176.26 304.898C1176.71 306.033 1176.94 307.336 1176.94 308.809C1176.94 310.332 1176.68 311.695 1176.16 312.896C1175.63 314.081 1174.89 315.097 1173.92 315.943C1172.96 316.773 1171.82 317.408 1170.52 317.848C1169.22 318.288 1167.78 318.508 1166.2 318.508C1164.83 318.508 1163.45 318.296 1162.06 317.873C1160.69 317.45 1159.44 316.79 1158.31 315.893C1157.19 314.995 1156.29 313.844 1155.61 312.439C1154.94 311.035 1154.6 309.359 1154.6 307.412H1157.52C1157.52 308.952 1157.77 310.264 1158.28 311.348C1158.81 312.414 1159.48 313.277 1160.31 313.938C1161.14 314.581 1162.07 315.055 1163.11 315.359C1164.14 315.647 1165.18 315.791 1166.23 315.791C1167.82 315.791 1169.19 315.503 1170.34 314.928C1171.51 314.352 1172.41 313.548 1173.03 312.516C1173.68 311.466 1174 310.247 1174 308.859ZM1198.32 281.031V318H1195.42V281.031H1198.32ZM1208.83 281.031V283.748H1184.94V281.031H1208.83ZM1222.43 281.031V318H1219.49V281.031H1222.43ZM1259.09 281.031V318H1256.17L1238.78 286.49V318H1235.84V281.031H1238.78L1256.2 312.541V281.031H1259.09ZM1282.98 283.266L1272.32 318H1269.32L1281.08 281.031H1283.14L1282.98 283.266ZM1292.53 318L1281.87 283.266L1281.74 281.031H1283.77L1295.55 318H1292.53ZM1290.88 304.924V307.666H1274.2V304.924H1290.88ZM1312.56 281.031V318H1309.66V281.031H1312.56ZM1323.07 281.031V283.748H1299.18V281.031H1323.07ZM1336.68 281.031V318H1333.73V281.031H1336.68ZM1372.98 295.529V303.527C1372.98 305.948 1372.7 308.098 1372.14 309.977C1371.6 311.839 1370.81 313.404 1369.76 314.674C1368.72 315.943 1367.47 316.908 1366 317.568C1364.54 318.212 1362.89 318.533 1361.05 318.533C1359.24 318.533 1357.59 318.212 1356.12 317.568C1354.65 316.908 1353.39 315.943 1352.34 314.674C1351.29 313.404 1350.48 311.839 1349.9 309.977C1349.34 308.098 1349.06 305.948 1349.06 303.527V295.529C1349.06 293.092 1349.34 290.934 1349.9 289.055C1350.46 287.176 1351.26 285.61 1352.29 284.357C1353.34 283.105 1354.6 282.157 1356.07 281.514C1357.54 280.854 1359.19 280.523 1361 280.523C1362.86 280.523 1364.53 280.854 1366 281.514C1367.47 282.157 1368.72 283.105 1369.76 284.357C1370.81 285.61 1371.6 287.176 1372.14 289.055C1372.7 290.934 1372.98 293.092 1372.98 295.529ZM1370.09 303.527V295.479C1370.09 293.464 1369.88 291.695 1369.48 290.172C1369.09 288.648 1368.51 287.379 1367.75 286.363C1366.99 285.348 1366.04 284.586 1364.91 284.078C1363.77 283.57 1362.47 283.316 1361 283.316C1359.57 283.316 1358.3 283.57 1357.16 284.078C1356.05 284.586 1355.1 285.356 1354.32 286.389C1353.56 287.404 1352.97 288.674 1352.57 290.197C1352.16 291.704 1351.96 293.464 1351.96 295.479V303.527C1351.96 305.559 1352.16 307.336 1352.57 308.859C1352.99 310.366 1353.59 311.635 1354.37 312.668C1355.15 313.684 1356.1 314.445 1357.21 314.953C1358.35 315.461 1359.63 315.715 1361.05 315.715C1362.52 315.715 1363.82 315.461 1364.93 314.953C1366.07 314.445 1367.01 313.684 1367.78 312.668C1368.54 311.635 1369.11 310.366 1369.5 308.859C1369.89 307.336 1370.09 305.559 1370.09 303.527ZM1408.17 281.031V318H1405.25L1387.86 286.49V318H1384.91V281.031H1387.86L1405.27 312.541V281.031H1408.17Z" fill="#262626"/>
</svg>
